# xmcd
#
# Track frame offsets: 
#        150
#        12452
#        23119
#        33446
#        52842
#        65177
#        75756
#        87007
#        98108
#        109557
#        121035
#        132475
#        144009
#        155911
#        167619
#        179651
#        191970
#        204185
#        214394
#
# Disc length: 3028 seconds
#
# Revision: 2
# Processed by: cddbd v1.5.2PL0 Copyright (c) Steve Scherf et al.
# Submitted via: ExactAudioCopy v0.95b4
#
DISCID=fd0bd213
DTITLE=Tatum, Art - The Legends Of Jazz
DYEAR=1900
DGENRE=Jazz
TTITLE0=Begin the beguine
TTITLE1=Emaline
TTITLE2=I got rhythm
TTITLE3=I know that you know
TTITLE4=Love me
TTITLE5=Honeysuckle rose
TTITLE6=Corrine, Corrina
TTITLE7=After you've gone
TTITLE8=St. Louis blues
TTITLE9=Battery bounce
TTITLE10=I would do anything for you
TTITLE11=I ain't got nobody
TTITLE12=Tea for two
TTITLE13=Moonglow
TTITLE14=Cocktails for two
TTITLE15=The sheik of Araby
TTITLE16=With plenny of money and you
TTITLE17=Tiger rag
TTITLE18=Rosetta
EXTD=
EXTT0=
EXTT1=
EXTT2=
EXTT3=
EXTT4=
EXTT5=
EXTT6=
EXTT7=
EXTT8=
EXTT9=
EXTT10=
EXTT11=
EXTT12=
EXTT13=
EXTT14=
EXTT15=
EXTT16=
EXTT17=
EXTT18=
PLAYORDER=
